Coordinates
nRows=9
nColumns=38

# SIMM Motion File Header:
name Coordinates
datacolumns 38
datarows 9
otherdata 1
range 0.16458000000000000000 0.17258000000000001000

Units are S.I. units (second, meters, Newtons, ...)
Angles are in degrees.

endheader
time	pelvis_tilt	pelvis_list	pelvis_rotation	pelvis_tx	pelvis_ty	pelvis_tz	hip_flexion_r	hip_adduction_r	hip_rotation_r	knee_angle_r	ankle_angle_r	subtalar_angle_r	mtp_angle_r	hip_flexion_l	hip_adduction_l	hip_rotation_l	knee_angle_l	ankle_angle_l	subtalar_angle_l	mtp_angle_l	lumbar_extension	lumbar_bending	lumbar_rotation	arm_flex_r	arm_add_r	arm_rot_r	elbow_flex_r	pro_sup_r	wrist_flex_r	wrist_dev_r	arm_flex_l	arm_add_l	arm_rot_l	elbow_flex_l	pro_sup_l	wrist_flex_l	wrist_dev_l
      0.16458000000000000000	      0.02539322713706390300	      2.60788253081873740000	      1.73147832002336680000	      0.74888059713630850000	      1.01746153500157900000	     -0.39222867061253169000	     22.95722241484762800000	     -0.66966915498535973000	     -3.71612177651143670000	    -14.47817114168914000000	      0.35296947431757825000	      0.00000000000000000000	      0.00000000000000000000	    -10.35477568754972900000	      4.59810847021831750000	      0.78526006945012783000	    -56.10712723550226100000	    -14.10090396838352500000	      0.00000000000000000000	      0.00000000000000000000	    -12.14082522388182600000	     -1.12225188041031740000	    -17.28959290600661400000	    -36.25840843555124600000	    -30.86082862470170000000	     -8.92916362862270850000	    117.17567958237119000000	     63.65300957713631600000	      0.00000000000000000000	      0.00000000000000000000	    -26.72792607629743600000	    -36.04053040530653400000	      5.13730409768540500000	    138.12082630181141000000	     90.30981228706495800000	      0.00000000000000000000	      0.00000000000000000000
      0.16558000000000000000	      0.07701672825518897400	      2.59107928507202740000	      1.66864069260242150000	      0.74886847899938735000	      1.01693425150717930000	     -0.39211567229122274000	     22.87380760496064600000	     -0.59107235287885451000	     -3.59344266265055450000	    -14.47566100878725400000	      0.31434542144781003000	     -0.00000000000000000109	      0.00000000000000000078	    -10.18915711671404600000	      4.56897658543319980000	      0.64875929571440361000	    -56.75108534548252900000	    -13.96215017042853300000	      0.00000000000000000038	      0.00000000000000000036	    -12.21050253443106100000	     -1.09588303711770910000	    -17.21274969475354100000	    -36.15330792182663100000	    -30.93189958650404800000	     -8.96943754124130170000	    117.20729096880831000000	     63.63494647047329500000	      0.00000000000000000010	     -0.00000000000000000030	    -26.87589224783756600000	    -36.01140112148407700000	      5.10909435065598850000	    138.11160473028806000000	     90.32910650867887600000	      0.00000000000000000036	      0.00000000000000000026
      0.16658000000000001000	      0.12962134132600001000	      2.57141146485578840000	      1.60544795323393320000	      0.74885542271737171000	      1.01639875211367350000	     -0.39200114865551605000	     22.79019918611011900000	     -0.50924176258355924000	     -3.46855851612551190000	    -14.48102025731280000000	      0.26969110507518157000	     -0.00000000000000000451	      0.00000000000000000109	    -10.02331078422536200000	      4.53524921461777450000	      0.51029416753622370000	    -57.39515616725959300000	    -13.82516522947100600000	      0.00000000000000000093	      0.00000000000000000009	    -12.28106601713342300000	     -1.06650201207193800000	    -17.13449386410045200000	    -36.04610827467063700000	    -31.00403226973210000000	     -9.00897648621590720000	    117.23803402236285000000	     63.61768000264161300000	      0.00000000000000000098	     -0.00000000000000000017	    -27.02258166590829400000	    -35.98072503525254000000	      5.07951454259920430000	    138.09985660668966000000	     90.35240466938486700000	      0.00000000000000000044	     -0.00000000000000000050
      0.16758000000000001000	      0.18326424441112857000	      2.54892258967402310000	      1.54187805509780280000	      0.74884142945276377000	      1.01585521159068290000	     -0.39188514107845690000	     22.70635352003741800000	     -0.42421511055460570000	     -3.34136307732388360000	    -14.49425002247864000000	      0.21774160128461209000	     -0.00000000000000000937	      0.00000000000000000167	     -9.85736484714704450000	      4.49702157016313640000	      0.37006652686814046000	    -58.03920132609444900000	    -13.68980931748846800000	      0.00000000000000000132	      0.00000000000000000011	    -12.35258982180254800000	     -1.03415374108049970000	    -17.05481748151830200000	    -35.93678741506418100000	    -31.07722623980431800000	     -9.04776873237092440000	    117.26790429858922000000	     63.60123725179752100000	      0.00000000000000000205	      0.00000000000000000011	    -27.16801219173831700000	    -35.94848222275000200000	      5.04854637873601940000	    138.08561257620269000000	     90.37969143402672500000	     -0.00000000000000000019	     -0.00000000000000000094
      0.16858000000000001000	      0.23828444793000217000	      2.52368511287962600000	      1.47796911655886440000	      0.74882663161655683000	      1.01530419637359780000	     -0.39176775395937385000	     22.62181536974047400000	     -0.33607516430914136000	     -3.21215080677725110000	    -14.51518220566962100000	      0.15903984457091427000	     -0.00000000000000001634	      0.00000000000000000491	     -9.69180209641836220000	      4.45440803740832170000	      0.22837200076737241000	    -58.68298377380451600000	    -13.55592976529755800000	      0.00000000000000000116	     -0.00000000000000000109	    -12.42545971500899200000	     -0.99889818916454354000	    -16.97378402240559600000	    -35.82529784573128500000	    -31.15146982098436400000	     -9.08579800260229750000	    117.29692835538538000000	     63.58563404091944400000	      0.00000000000000000332	      0.00000000000000000087	    -27.31218256592032400000	    -35.91470325603073400000	      5.01614901805696520000	    138.06895004898894000000	     90.41089059933543100000	     -0.00000000000000000155	      0.00000000000000000022
      0.16958000000000001000	      0.29478691758213116000	      2.49576755382706450000	      1.41374309962503200000	      0.74881108106791439000	      1.01474590869128270000	     -0.39164908443160312000	     22.53644603756378100000	     -0.24490139178834422000	     -3.08113358969192270000	    -14.54376330437676400000	      0.09377276215908300600	     -0.00000000000000002312	      0.00000000000000000674	     -9.52681661398808540000	      4.40753896785938530000	      0.08547381949110749400	    -59.32635249039551400000	    -13.42333477365734500000	      0.00000000000000000159	     -0.00000000000000000282	    -12.49980284642944100000	     -0.96080227141894559000	    -16.89143589801906800000	    -35.71162058282444500000	    -31.22676083491822800000	     -9.12305033075358020000	    117.32512152591872000000	     63.57089213366906200000	      0.00000000000000000411	      0.00000000000000000069	    -27.45513030055433400000	    -35.87938398207438000000	      4.98228525559126730000	    138.04992800959960000000	     90.44594601889632200000	     -0.00000000000000000330	      0.00000000000000000157
      0.17058000000000001000	      0.35272435269716684000	      2.46524877923282700000	      1.34921511816783960000	      0.74879478187806681000	      1.01418030230001600000	     -0.39152922681828828000	     22.45030833125429800000	     -0.15078559056806978000	     -2.94853477818725370000	    -14.58001200556753400000	      0.02215792624112990600	     -0.00000000000000003069	      0.00000000000000001011	     -9.36241577056361150000	      4.35656846462895510000	     -0.05838009254064259500	    -59.96921236002435100000	    -13.29181151473754200000	      0.00000000000000000229	     -0.00000000000000000519	    -12.57557912719224700000	     -0.91995138603693338000	    -16.80780803305440000000	    -35.59575689773129900000	    -31.30310035878253300000	     -9.15951197137659890000	    117.35249419575244000000	     63.55703690956711700000	      0.00000000000000000501	     -0.00000000000000000019	    -27.59692061489297300000	    -35.84250399883428900000	      4.94691668032693070000	    138.02859747101454000000	     90.48480625548231200000	     -0.00000000000000000523	      0.00000000000000000263
      0.17158000000000001000	      0.41194957395879023000	      2.43221663626024440000	      1.28439394401157570000	      0.74877770081535200000	      1.01360716900133880000	     -0.39140827078076423000	     22.36360041568425700000	     -0.05382774678042264600	     -2.81456569284200860000	    -14.62400410592481100000	     -0.05550265150548229500	     -0.00000000000000003662	      0.00000000000000001098	     -9.19848389497288820000	      4.30166901582048930000	     -0.20295490713043740000	    -60.61150658595236300000	    -13.16113550410965700000	      0.00000000000000000297	     -0.00000000000000000613	    -12.65264067539900400000	     -0.87644548747285056000	    -16.72292925636776000000	    -35.47772024990577900000	    -31.38049114998951700000	     -9.19516868292167190000	    117.37905394457960000000	     63.54409516009460600000	      0.00000000000000000585	     -0.00000000000000000142	    -27.73763477388229100000	    -35.80403434090043600000	      4.91000360972894520000	    138.00500455643478000000	     90.52741752722711500000	     -0.00000000000000000763	      0.00000000000000000517
      0.17258000000000001000	      0.47224467418159699000	      2.39676512972869780000	      1.21929563106454420000	      0.74875977041961472000	      1.01302618908176310000	     -0.39128631906319877000	     22.27661520069613800000	      0.04586145522948238700	     -2.67944866571139740000	    -14.67585705348887800000	     -0.13887865616444639000	     -0.00000000000000004141	      0.00000000000000001258	     -9.03481544383226880000	      4.24302427662617450000	     -0.34801500032683819000	    -61.25321141906226800000	    -13.03107598880290400000	      0.00000000000000000312	     -0.00000000000000000567	    -12.73076527647212700000	     -0.83039202956621505000	    -16.63683561869310900000	    -35.35753142052381300000	    -31.45893630838503100000	     -9.23000512833164070000	    117.40480620899923000000	     63.53209428020806400000	      0.00000000000000000629	     -0.00000000000000000305	    -27.87736310376691400000	    -35.76394215034559200000	      4.87150510803303490000	    137.97919183374930000000	     90.57371996838419600000	     -0.00000000000000000976	      0.00000000000000000877
